#!OML:ASF H:\GeneralSubjects\Female5\Project 1\Capture day 1\Session 1\Female5.ASF
:FULLY-SPECIFIED
:DEGREES
644
root -6.84789 15.9514 1.01766 179.937 -73.2138 -170.834
lowerback 6.11784 1.76629 1.91244
upperback -10.252 2.59993 2.81698
thorax -14.8032 1.05058 1.62416
lowerneck -11.3389 -12.7976 -13.2971
upperneck 29.0284 -17.0584 1.38926
head 12.856 -9.21501 0.00155283
rclavicle 2.28602e-015 1.27222e-014
rhumerus -46.2756 24.2843 -87.4154
rradius 37.3665
rwrist -7.34899
rhand -22.5393 -25.5052
rfingers 7.12502
rthumb 3.88796 -415.449
lclavicle 2.28602e-015 1.27222e-014
lhumerus -46.6783 3.65081 81.99
lradius 33.7356
lwrist -2.36284
lhand -11.3917 42.0107
lfingers 7.12502
lthumb 14.6431 431.474
rfemur 11.8163 22.2077 41.9267
rtibia -13.1207
rfoot -31.3749 -30.9705
rtoes 17.2856
lfemur -26.71 -34.6376 -4.32326
ltibia 4.37171
lfoot -38.1267 -4.9647
ltoes -3.8744
645
root -6.83841 15.9574 1.02613 179.726 -73.2559 -170.612
lowerback 6.23325 1.70521 2.20029
upperback -10.2277 2.56047 2.81242
thorax -14.8336 0.999819 1.46323
lowerneck -11.4549 -12.9482 -13.244
upperneck 29.0077 -17.2841 1.42839
head 12.8874 -9.2971 -0.0408945
rclavicle -3.1408e-014 -3.02153e-014
rhumerus -46.0103 23.3661 -86.7223
rradius 36.2203
rwrist -7.20706
rhand -22.5353 -25.4567
rfingers 7.12502
rthumb 3.89182 -415.401
lclavicle -3.1408e-014 -3.02153e-014
lhumerus -46.6772 3.53585 81.8728
lradius 33.473
lwrist -2.64354
lhand -14.3004 39.7067
lfingers 7.12502
lthumb 11.8395 429.352
rfemur 11.8026 22.1458 41.884
rtibia -13.2434
rfoot -31.4826 -30.8215
rtoes 17.6845
lfemur -26.7964 -34.9286 -4.12782
ltibia 4.2966
lfoot -38.38 -5.27047
ltoes -3.94893
646
root -6.82859 15.9612 1.03279 179.894 -73.3076 -170.746
lowerback 6.27135 1.65437 2.30158
upperback -10.2223 2.50556 2.80279
thorax -14.8456 0.96201 1.40553
lowerneck -11.4549 -13.072 -13.2601
upperneck 28.9404 -17.5035 1.56934
head 12.8944 -9.37507 -0.0256221
rclavicle 7.65321e-015 -3.97569e-014
rhumerus -45.7039 22.2998 -85.9154
rradius 35.0915
rwrist -6.95037
rhand -22.0191 -26.6161
rfingers 7.12502
rthumb 4.39034 -416.551
lclavicle 7.65321e-015 -3.97569e-014
lhumerus -46.6162 3.5688 81.619
lradius 33.1757
lwrist -3.5592
lhand -25.3932 33.0248
lfingers 7.12502
lthumb 1.13176 423.002
rfemur 11.8113 22.1036 41.816
rtibia -13.4141
rfoot -31.3147 -31.0108
rtoes 17.1484
lfemur -26.9086 -35.0055 -4.11916
ltibia 4.32563
lfoot -38.4247 -4.67641
ltoes -4.22936
647
root -6.81471 15.964 1.04079 180.116 -73.2278 -170.938
lowerback 6.38857 1.64866 2.407
upperback -10.2285 2.51592 2.7801
thorax -14.9229 0.952852 1.31759
lowerneck -11.4438 -13.0616 -13.0387
upperneck 28.755 -17.5114 1.56536
head 12.7901 -9.35433 -0.0466047
rclavicle 2.16675e-014 8.74653e-015
rhumerus -45.3792 21.2444 -85.0963
rradius 33.8054
rwrist -6.62107
rhand -21.697 -26.9763
rfingers 7.12502
rthumb 4.70139 -416.904
lclavicle 2.16675e-014 8.74653e-015
lhumerus -46.4149 3.69875 81.2263
lradius 32.7323
lwrist -4.58783
lhand -24.9704 33.7965
lfingers 7.12502
lthumb 1.54011 423.771
rfemur 11.7818 22.1968 41.7645
rtibia -13.5098
rfoot -30.9406 -31.3589
rtoes 16.3399
lfemur -26.9644 -34.994 -4.10075
ltibia 4.33519
lfoot -38.4973 -4.06204
ltoes -4.52854
648
root -6.79758 15.9673 1.05233 180.502 -73.0361 -171.352
lowerback 6.65574 1.66955 2.51681
upperback -10.234 2.5697 2.72501
thorax -15.0947 0.961044 1.17979
lowerneck -11.413 -13.1297 -13.1761
upperneck 28.6211 -17.666 1.87099
head 12.7904 -9.396 0.0605836
rclavicle -3.42904e-014 -1.59028e-015
rhumerus -45.1096 20.2195 -84.277
rradius 32.6198
rwrist -6.30962
rhand -21.8519 -26.3536
rfingers 7.12502
rthumb 4.55178 -416.285
lclavicle -3.42904e-014 -1.59028e-015
lhumerus -46.3218 3.57672 80.9918
lradius 32.3639
lwrist -4.60904
lhand -22.8804 35.4468
lfingers 7.12502
lthumb 3.55864 425.397
rfemur 11.7415 22.3848 41.6516
rtibia -13.4761
rfoot -31.335 -31.0262
rtoes 17.7464
lfemur -26.9487 -35.1929 -4.0701
ltibia 4.25391
lfoot -38.9185 -4.21864
ltoes -4.57824
649
root -6.78261 15.9686 1.06426 181.056 -72.8126 -171.893
lowerback 6.78735 1.69512 2.54635
upperback -10.2223 2.61204 2.67836
thorax -15.1616 0.974309 1.10011
lowerneck -11.4826 -13.1862 -13.2249
upperneck 28.4997 -17.7837 2.10795
head 12.7958 -9.41728 0.130086
rclavicle -1.92821e-014 -5.56597e-015
rhumerus -44.9261 19.3312 -83.5128
rradius 31.7039
rwrist -5.90899
rhand -21.7604 -26.5998
rfingers 7.12502
rthumb 4.64015 -416.529
lclavicle -1.92821e-014 -5.56597e-015
lhumerus -46.2339 3.52401 80.7285
lradius 32.0774
lwrist -4.68061
lhand -21.2793 37.0494
lfingers 7.12502
lthumb 5.10465 426.968
rfemur 11.6606 22.6108 41.4514
rtibia -13.442
rfoot -31.9595 -30.5042
rtoes 19.3273
lfemur -26.9461 -35.5148 -4.02736
ltibia 4.09144
lfoot -39.4825 -4.79146
ltoes -4.49828
650
root -6.76712 15.9681 1.07556 181.381 -72.5694 -172.147
lowerback 6.87447 1.71774 2.62591
upperback -10.2163 2.65714 2.66374
thorax -15.2065 0.984857 1.0288
lowerneck -11.5351 -13.2231 -13.1058
upperneck 28.1911 -17.8351 2.20948
head 12.6817 -9.4067 0.151967
rclavicle 2.59414e-014 4.05521e-014
rhumerus -44.8335 18.6518 -82.8985
rradius 30.896
rwrist -5.53875
rhand -21.5609 -27.3792
rfingers 7.12502
rthumb 4.83273 -417.304
lclavicle 2.59414e-014 4.05521e-014
lhumerus -46.1453 3.6054 80.3264
lradius 31.9008
lwrist -5.26154
lhand -23.7905 35.6902
lfingers 7.12502
lthumb 2.67966 425.653
rfemur 11.5152 22.8669 41.3053
rtibia -13.4111
rfoot -31.8714 -30.5688
rtoes 19.0513
lfemur -26.9424 -35.6362 -3.92495
ltibia 3.88767
lfoot -39.8481 -5.11733
ltoes -4.61028
651
root -6.75146 15.9672 1.0876 181.579 -72.294 -172.299
lowerback 7.05009 1.74722 2.75744
upperback -10.2133 2.72464 2.64922
thorax -15.3101 0.999362 0.922347
lowerneck -11.639 -13.1997 -13.0717
upperneck 28.0591 -17.8352 2.41938
head 12.6673 -9.37126 0.220615
rclavicle 2.19657e-014 3.57812e-014
rhumerus -44.9267 18.101 -82.4253
rradius 30.445
rwrist -5.55285
rhand -21.701 -27.8434
rfingers 7.12502
rthumb 4.69752 -417.771
lclavicle 2.19657e-014 3.57812e-014
lhumerus -46.0592 3.65355 79.9076
lradius 31.8089
lwrist -5.95101
lhand -25.7132 34.3727
lfingers 7.12502
lthumb 0.822773 424.351
rfemur 11.4841 23.153 41.3026
rtibia -13.4635
rfoot -31.435 -30.9261
rtoes 18.4251
lfemur -26.8816 -35.5918 -3.87069
ltibia 3.72927
lfoot -40.0971 -5.02459
ltoes -4.68254
652
root -6.7377 15.9664 1.09923 181.866 -72.0154 -172.558
lowerback 7.23042 1.77944 2.81774
upperback -10.2094 2.78665 2.63283
thorax -15.4188 1.01929 0.854078
lowerneck -11.7594 -13.1933 -12.8929
upperneck 27.9898 -17.8131 2.35454
head 12.6333 -9.34606 0.17271
rclavicle -9.93923e-015 7.95139e-015
rhumerus -45.1174 17.5691 -81.9558
rradius 30.1663
rwrist -5.38387
rhand -22.1576 -28.1789
rfingers 7.12502
rthumb 4.2566 -418.116
lclavicle -9.93923e-015 7.95139e-015
lhumerus -45.9391 3.74499 79.5008
lradius 31.6963
lwrist -6.44624
lhand -25.4698 34.4989
lfingers 7.12502
lthumb 1.05778 424.476
rfemur 11.5795 23.448 41.395
rtibia -13.6122
rfoot -31.3326 -31.1578
rtoes 18.5011
lfemur -26.8131 -35.5528 -3.86254
ltibia 3.58869
lfoot -40.3182 -5.41752
ltoes -4.77649
653
root -6.7226 15.9671 1.11211 182.216 -71.7829 -172.911
lowerback 7.48248 1.78304 2.90143
upperback -10.1899 2.81532 2.58335
thorax -15.5516 1.01912 0.74
lowerneck -11.8802 -13.1966 -12.7706
upperneck 27.8328 -17.8257 2.44221
head 12.59 -9.3211 0.183852
rclavicle -1.16289e-014 -1.51076e-014
rhumerus -45.1292 16.9958 -81.4335
rradius 29.7139
rwrist -4.77892
rhand -22.3987 -28.215
rfingers 7.12502
rthumb 4.02374 -418.157
lclavicle -1.16289e-014 -1.51076e-014
lhumerus -45.8933 3.67632 79.1794
lradius 31.7673
lwrist -6.41106
lhand -25.4837 34.4276
lfingers 7.12502
lthumb 1.04438 424.405
rfemur 11.574 23.6839 41.3469
rtibia -13.6179
rfoot -31.4855 -31.1016
rtoes 18.8469
lfemur -26.7683 -35.4766 -3.9109
ltibia 3.47307
lfoot -40.4733 -6.12304
ltoes -4.97929
